<svg width="32" height="30" viewBox="0 0 32 30" fill="none" xmlns="http://www.w3.org/2000/svg">
<path d="M31.927 25.9199L27.8858 7.38779C27.6481 6.22469 26.5387 5.44929 25.3502 5.44929H20.8336C20.8336 5.21667 20.9128 5.06159 20.9128 4.82897C20.9128 2.19261 18.6941 0.0214844 16 0.0214844C13.3059 0.0214844 11.0872 2.19261 11.0872 4.82897C11.0872 5.06159 11.0872 5.21667 11.1664 5.44929H6.64985C5.46127 5.44929 4.43117 6.30223 4.11422 7.38779L0.073048 25.9199C-0.323145 27.4707 0.944673 29.0215 2.60868 29.0215H29.3913C31.0553 29.0215 32.3231 27.4707 31.927 25.9199ZM13.1474 4.75143C13.1474 3.27817 14.4152 2.03753 16 2.03753C17.5848 2.03753 18.7733 3.27817 18.7733 4.75143C18.7733 4.98405 18.7734 5.13913 18.6941 5.37175H13.2266C13.2266 5.21667 13.1474 4.98405 13.1474 4.75143Z" fill="#D6DB46"/>
</svg>
