<svg width="168" height="178" viewBox="0 0 168 178" fill="none" xmlns="http://www.w3.org/2000/svg">
<path d="M26.4005 83.0602C40.6 100.673 27.5203 116.026 15.7404 84.4158C8.61087 65.1614 14.5708 62.8204 15.4747 62.4474C19.1236 60.8547 21.3412 69.2302 21.3412 69.2302L24.0936 69.6875C20.3421 55.7845 16.8437 53.5193 12.6157 53.1357C7.31392 52.6227 -6.76662 61.6746 4.93581 90.9711C14.9756 115.982 38.7293 117.419 33.8664 95.0012C34.8831 97.3445 35.802 100.326 37.7941 103.268C44.4463 113.268 49.553 100.097 49.553 100.097C43.2066 98.5149 38.2476 69.5908 26.4005 83.0602ZM53.0273 39.8476C52.0895 40.1537 51.1863 40.6944 50.4177 41.3351C50.2808 40.7319 50.144 40.1288 50.0078 39.6934C47.015 30.4493 37.3798 35.9931 36.7488 37.4046C38.5762 41.0189 38.0478 57.9261 43.2425 72.0239C48.9794 87.3602 60.1153 94.9244 70.7642 91.0532C78.7351 88.3679 81.257 74.7389 76.3639 60.5727C71.4707 46.4065 60.9981 37.1623 53.0273 39.8476ZM72.7722 59.9514C74.3355 64.5396 75.1266 68.93 75.1099 72.7203C64.9688 70.1157 49.512 48.8524 55.9293 43.759C56.2301 43.5229 56.6317 43.3198 57.0671 43.1837C61.9569 41.5519 69.0002 49.0002 72.7722 59.9514ZM70.7268 82.6681C65.7701 84.3337 58.7268 76.8854 54.9548 65.9342C54.4112 64.3602 53.9682 62.8192 53.5923 61.2445C60.0017 69.4335 70.9271 74.9191 74.8564 76.042C74.3352 79.4991 72.904 81.9875 70.7268 82.6681ZM91.0947 20.6012C90.1569 20.9072 89.2537 21.4479 88.4851 22.0886C88.3483 21.4855 88.2114 20.8824 88.0753 20.4469C85.0824 11.2029 75.4472 16.7466 74.8163 18.1582C76.6436 21.7725 76.1153 38.6797 81.31 52.7774C87.0469 68.1138 98.1828 75.678 108.832 71.8068C116.803 69.1215 119.324 55.4924 114.431 41.3263C109.538 27.1601 99.0656 17.9159 91.0947 20.6012ZM110.84 40.705C112.403 45.2932 113.194 49.6836 113.177 53.4738C103.036 50.8693 87.5795 29.6059 93.9967 24.5126C94.2975 24.2764 94.6991 24.0734 95.1345 23.9373C100.024 22.3055 107.068 29.7538 110.84 40.705ZM108.794 63.4216C103.838 65.0873 96.7942 57.639 93.0223 46.6878C92.4786 45.1137 92.0357 43.5728 91.6597 41.998C98.0691 50.1871 108.995 55.6727 112.924 56.7956C112.403 60.2526 110.971 62.7411 108.794 63.4216ZM128.694 1.75933C125.781 2.81211 124.217 5.53593 123.493 8.75913C123.357 8.3237 123.188 7.98904 123.019 7.65438C117.762 -5.2356 106.366 4.13973 106.366 4.13973C111.658 9.95232 126.619 62.8139 138.363 56.4557C139.167 56.0496 140.169 55.2066 141.037 54.2636C153.426 41.8651 138.607 -1.73964 128.694 1.75933ZM130.102 24.1587C130.102 24.1587 122.852 7.82283 127.773 5.75486C132.125 3.89068 145.818 35.7945 142.281 47.4156C139.382 44.175 134.507 34.0337 130.102 24.1587ZM50.2848 126.311C59.0596 123.388 51.2981 112.857 51.2981 112.857C48.7931 115.216 22.3492 119.761 27.6665 131.276C34.5119 146.976 46.5105 182.51 56.1472 177.302C58.389 176.084 61.9267 172.111 61.6124 169.328C59.3307 169.137 53.7464 157.926 48.5637 146.511C49.803 146.137 51.0755 145.661 52.4487 145.219C52.9511 145.049 53.4196 144.812 53.922 144.642C54.4243 144.472 54.8598 144.336 55.3283 144.099C55.5629 144.065 55.8306 143.929 56.0314 143.828C56.2322 143.726 56.4669 143.692 56.6677 143.59L57.27 143.286C57.5047 143.251 57.7055 143.15 57.8393 143.082C58.0401 142.98 58.2409 142.879 58.3748 142.811L58.8433 142.574C59.178 142.405 59.4457 142.27 59.6465 142.168L59.9812 141.999C60.0142 141.898 60.0812 141.864 60.1481 141.831L60.3489 141.729L58.7276 139.187L58.5937 139.255C58.5937 139.255 58.5268 139.289 58.4599 139.323L58.1921 139.458C57.9913 139.559 57.7905 139.661 57.5228 139.796L57.1212 139.999C56.9874 140.067 56.7527 140.102 56.6189 140.169L56.0834 140.44C55.9157 140.441 55.7149 140.542 55.5141 140.644C55.2795 140.678 55.0787 140.78 54.8779 140.881C54.6432 140.916 54.4425 141.018 54.2078 141.052C53.7724 141.188 53.27 141.358 52.8346 141.494L51.3944 141.97C49.8874 142.48 48.4134 142.889 47.1402 143.197C44.9376 138.175 42.9034 133.321 41.3438 129.571C43.6872 128.555 46.7683 127.501 50.2848 126.311ZM75.0681 107.142C74.1303 107.448 73.2271 107.989 72.4585 108.63C72.3217 108.026 72.1848 107.423 72.0487 106.988C69.0559 97.7438 59.4207 103.288 58.7897 104.699C60.617 108.313 60.0887 125.221 65.2834 139.318C71.0203 154.655 82.1562 162.219 92.8051 158.348C100.776 155.662 103.298 142.033 98.4047 127.867C93.5116 113.701 83.039 104.457 75.0681 107.142ZM94.813 127.246C96.3764 131.834 97.1674 136.225 97.1508 140.015C87.0097 137.41 71.5529 116.147 77.9701 111.053C78.271 110.817 78.6725 110.614 79.108 110.478C83.9977 108.846 91.0411 116.295 94.813 127.246ZM92.7677 149.963C87.811 151.628 80.7677 144.18 76.9957 133.229C76.452 131.655 76.0091 130.114 75.6331 128.539C82.0425 136.728 92.9679 142.214 96.8973 143.336C96.376 146.794 94.9449 149.282 92.7677 149.963ZM113.136 87.8957C112.198 88.2017 111.295 88.7424 110.526 89.3831C110.389 88.78 110.252 88.1769 110.116 87.7414C107.123 78.4974 97.4881 84.0411 96.8571 85.4527C98.6845 89.067 98.1561 105.974 103.351 120.072C109.088 135.408 120.224 142.972 130.873 139.101C138.843 136.416 141.365 122.787 136.472 108.621C131.579 94.4546 121.106 85.2103 113.136 87.8957ZM132.88 107.999C134.444 112.588 135.235 116.978 135.218 120.768C125.077 118.164 109.62 96.9004 116.038 91.8071C116.338 91.5709 116.74 91.3679 117.175 91.2318C122.065 89.6 129.109 97.0483 132.88 107.999ZM130.835 130.716C125.878 132.382 118.835 124.933 115.063 113.982C114.519 112.408 114.077 110.867 113.701 109.293C120.11 117.482 131.035 122.967 134.965 124.09C134.443 127.547 133.012 130.036 130.835 130.716ZM150.735 69.0538C147.822 70.1066 146.258 72.8304 145.534 76.0536C145.398 75.6182 145.229 75.2835 145.06 74.9489C139.803 62.0589 128.407 71.4342 128.407 71.4342C133.699 77.2468 148.66 130.108 160.404 123.75C161.208 123.344 162.21 122.501 163.078 121.558C175.466 109.16 160.648 65.5548 150.735 69.0538ZM152.143 91.4532C152.143 91.4532 144.893 75.1173 149.814 73.0493C154.166 71.1852 167.859 103.089 164.322 114.71C161.423 111.47 156.548 101.328 152.143 91.4532Z" fill="#93B045"/>
</svg>
