<svg width="139" height="138" viewBox="0 0 139 138" fill="none" xmlns="http://www.w3.org/2000/svg">
<circle cx="69.7858" cy="69.0338" r="68.9655" fill="#D98D8D"/>
<path d="M75.9442 39.0698C67.5714 41.3783 29.9755 29.8356 30.3039 44.5113C30.386 47.3145 32.6023 52.7561 35.3933 53.7454C36.5425 51.8491 40.7289 51.6842 46.8034 52.0965C45.2437 72.2961 41.4677 105.605 52.4674 105.358C55.2583 105.275 60.676 103.049 61.6611 100.246C58.5418 98.2671 60.1835 69.7402 61.3327 53.4156L64.2058 53.663C79.3919 54.8997 75.9442 39.0698 75.9442 39.0698Z" fill="white"/>
<path d="M96.5641 71.2243C95.0044 71.2243 93.5268 71.3892 92.2134 71.719C100.75 61.3306 103.706 47.4794 95.7432 46.4076C90.2434 45.748 86.139 51.1071 83.4302 56.9609L83.9227 49.3757C85.154 34.1229 69.3933 37.6682 69.3933 37.6682C71.6917 45.9954 60.1996 105.275 74.811 104.863C86.5495 104.863 94.7581 100.163 100.422 93.3202C108.22 83.8388 108.959 71.2243 96.5641 71.2243ZM92.8701 49.8704C97.8774 50.2002 91.9672 68.6684 82.4451 75.3467V74.7696C83.1839 70.7296 87.6166 49.5406 92.8701 49.8704ZM84.0048 99.7512C82.4451 98.8442 82.0347 91.2591 82.1988 81.9425C88.1912 76.9132 100.094 73.6977 100.422 80.7058C100.833 92.7431 84.0048 99.7512 84.0048 99.7512Z" fill="white"/>
</svg>